<?xml version="1.0" encoding="utf-8"?>
<!-- Generator: Adobe Illustrator 21.0.1, SVG Export Plug-In . SVG Version: 6.00 Build 0)  -->
<svg version="1.1" id="Layer_1" xmlns="http://www.w3.org/2000/svg" xmlns:xlink="http://www.w3.org/1999/xlink" x="0px" y="0px"
	 viewBox="0 0 420.1 116.1" style="enable-background:new 0 0 420.1 116.1;" xml:space="preserve">
<style type="text/css">
	.st0{fill:#474747;}
	.st1{fill:#EE4444;}
</style>
<g>
	<path class="st0" d="M224.6,108.1c-3,2.6-6.3,4.5-10,5.9s-7.5,2.1-11.5,2.1c-3,0-6-0.4-8.8-1.2c-2.8-0.8-5.5-1.9-7.9-3.4
		c-2.5-1.4-4.7-3.2-6.7-5.2s-3.8-4.3-5.2-6.7c-1.4-2.5-2.6-5.1-3.4-7.9s-1.2-5.7-1.2-8.8s0.4-6,1.2-8.8c0.8-2.8,1.9-5.5,3.4-7.9
		c1.4-2.5,3.2-4.7,5.2-6.7s4.3-3.8,6.7-5.2c2.5-1.4,5.1-2.6,7.9-3.4s5.7-1.2,8.8-1.2c4,0,7.8,0.7,11.5,2c3.7,1.4,7,3.3,10,5.9
		l-6.8,11.2c-1.9-2-4.1-3.6-6.7-4.7s-5.2-1.6-8.1-1.6c-2.8,0-5.5,0.5-8,1.6s-4.6,2.5-6.5,4.4c-1.8,1.8-3.3,4-4.4,6.5
		s-1.6,5.1-1.6,7.9s0.5,5.4,1.6,7.9s2.5,4.6,4.4,6.5c1.8,1.8,4,3.3,6.5,4.4s5.1,1.6,8,1.6c2.8,0,5.5-0.5,8.1-1.6s4.8-2.6,6.7-4.7
		L224.6,108.1z"/>
	<path class="st0" d="M259.4,114.7h-30.8V69.8h30.8v9h-21.8v9h14.7v9h-14.7v9h21.8V114.7z"/>
	<path class="st0" d="M301.2,114.7h-9.6l-17.3-29.6v29.6h-9V69.8h9.6l17.3,29.6V69.8h9V114.7z"/>
	<path class="st0" d="M328.8,114.7h-9V78.8h-13.5v-9h35.9v9h-13.5v35.9H328.8z"/>
	<path class="st0" d="M378.4,114.7h-30.8V69.8h30.8v9h-21.8v9h14.7v9h-14.7v9h21.8V114.7z"/>
	<path class="st0" d="M393.2,114.7h-9V69.8h18c1.6,0,3.2,0.2,4.8,0.6c1.5,0.4,2.9,1,4.3,1.8s2.5,1.7,3.6,2.8c1.1,1.1,2,2.3,2.8,3.6
		c0.8,1.3,1.4,2.8,1.8,4.3s0.6,3.1,0.6,4.8c0,1.5-0.2,3-0.6,4.5s-0.9,2.8-1.7,4.2c-0.7,1.3-1.6,2.5-2.6,3.6s-2.2,2.1-3.5,2.9l5,11.7
		h-9.5l-3.9-9l-10,0.1L393.2,114.7L393.2,114.7z M393.2,78.8v18h9c1.2,0,2.4-0.2,3.5-0.7s2-1.1,2.8-1.9s1.5-1.8,1.9-2.9
		c0.5-1.1,0.7-2.3,0.7-3.5s-0.2-2.4-0.7-3.5s-1.1-2-1.9-2.9c-0.8-0.8-1.8-1.5-2.8-1.9c-1.1-0.5-2.2-0.7-3.5-0.7H393.2z"/>
	<polygon class="st1" points="113.5,0 107.2,23.6 128.7,35.3 78.8,56.8 63.6,21.5 	"/>
	<path class="st0" d="M13,113.9H0V49.1h13V75h25.9V49.1h13v64.8h-13V88H13V113.9z"/>
	<path class="st0" d="M139.4,114.3h-8.9V69h8.9v23.1L156,69.8h10.1L152,88.6l14.1,25.7H156l-9.8-18l-6.8,9.1V114.3z"/>
	<polygon class="st0" points="74.9,95.7 80.4,82.1 75.8,70.9 57.3,114.3 67.3,114.3 71.4,104.3 89.7,104.3 86.1,95.7 	"/>
	<path class="st0" d="M116,105.2c-1.8,0.8-3.6,1.1-5.6,1.1s-3.8-0.4-5.5-1.1s-3.2-1.8-4.5-3c-1.3-1.3-2.3-2.8-3-4.5
		s-1.1-3.5-1.1-5.5c0-1.9,0.4-3.8,1.1-5.5c0.7-1.7,1.8-3.2,3-4.5c1.3-1.3,2.8-2.3,4.5-3s3.6-1.1,5.5-1.1s3.8,0.4,5.6,1.1
		c1.8,0.8,3.3,1.8,4.6,3.2l4.7-7.8c-2.1-1.8-4.4-3.2-7-4.1s-5.2-1.4-8-1.4c-2.1,0-4.1,0.3-6.1,0.8s-3.8,1.3-5.5,2.3
		s-3.3,2.2-4.7,3.6s-2.6,3-3.6,4.7c-0.2,0.3-0.4,0.7-0.6,1l13.6,32.6c0.2,0.1,0.5,0.2,0.7,0.2c2,0.5,4,0.8,6.1,0.8
		c2.8,0,5.4-0.5,8-1.4c2.6-1,4.9-2.3,7-4.1l-4.7-7.8C119.3,103.4,117.7,104.5,116,105.2z"/>
</g>
</svg>
